<?xml version="1.0" encoding="utf-8"?>
<!-- Generator: Adobe Illustrator 26.2.1, SVG Export Plug-In . SVG Version: 6.00 Build 0)  -->
<svg version="1.1" id="Layer_1" xmlns="http://www.w3.org/2000/svg" xmlns:xlink="http://www.w3.org/1999/xlink" x="0px" y="0px"
	 viewBox="0 0 271.7 86.3" style="enable-background:new 0 0 271.7 86.3;" xml:space="preserve">
<style type="text/css">
	.st0{enable-background:new    ;}
	.st1{fill:#FFFFFF;}
	.st2{fill:url(#SVGID_1_);}
	.st3{fill:url(#SVGID_00000165912838396465605080000001454573392657920681_);}
	.st4{fill:url(#SVGID_00000157291825976531727670000004031373525851513243_);}
	.st5{fill:url(#SVGID_00000177448864645028029770000015122765114893025438_);}
	.st6{fill:url(#SVGID_00000014627565056683285570000016750091891873029519_);}
	.st7{fill:url(#SVGID_00000085227872317753177430000008758386163108146598_);}
	.st8{fill:url(#SVGID_00000150788655660864012550000013640289901690560137_);}
	.st9{fill:url(#SVGID_00000096761871827177851300000006104404944190443153_);}
	.st10{fill:url(#SVGID_00000017487670394207425330000011461409784850664347_);}
	.st11{fill:url(#SVGID_00000102525610698771773000000002789858196063020449_);}
	.st12{fill:url(#SVGID_00000159449782234252463590000014674058241429011103_);}
	.st13{fill:url(#SVGID_00000170241225587295798850000014483080963840664998_);}
</style>
<text transform="matrix(1 0 0 1 127.8596 363.5999)" style="fill:#12AAFF; font-family:'Poppins-Medium'; font-size:9.7737px; letter-spacing:1;">TAGLINE GOES HERE</text>
<g class="st0">
	<path class="st1" d="M68.9,33.6l8.5,26.5l8.5-26.5H98v38.1h-9.2v-8.9l0.9-18.2l-9.2,27.1h-6.1l-9.2-27.1l0.9,18.2v8.9h-9.2V33.6
		H68.9z"/>
	<path class="st1" d="M102.3,57.3c0-2.8,0.5-5.3,1.6-7.6c1.1-2.2,2.7-3.9,4.7-5.1c2.1-1.2,4.5-1.8,7.3-1.8c4.2,0,7.6,1.3,10,3.9
		c2.4,2.6,3.7,6.2,3.7,10.7v0.3c0,4.4-1.2,7.9-3.7,10.5c-2.5,2.6-5.8,3.9-10,3.9c-4,0-7.3-1.2-9.7-3.6c-2.4-2.4-3.8-5.7-4-9.8
		L102.3,57.3z M111.2,57.9c0,2.6,0.4,4.5,1.2,5.8c0.8,1.2,2,1.8,3.6,1.8c3.1,0,4.7-2.4,4.8-7.3v-0.9c0-5.1-1.6-7.6-4.9-7.6
		c-2.9,0-4.5,2.2-4.8,6.6L111.2,57.9z"/>
	<path class="st1" d="M144.5,61.2l4.5-17.8h9.3L149,71.7h-9l-9.2-28.3h9.3L144.5,61.2z"/>
	<path class="st1" d="M160.8,36.1c0-1.3,0.5-2.3,1.4-3.1c0.9-0.8,2.1-1.2,3.5-1.2s2.6,0.4,3.5,1.2c0.9,0.8,1.4,1.8,1.4,3.1
		c0,1.3-0.5,2.3-1.4,3.1c-0.9,0.8-2.1,1.2-3.5,1.2s-2.6-0.4-3.5-1.2C161.2,38.4,160.8,37.4,160.8,36.1z M170.2,71.7h-8.8V43.4h8.8
		V71.7z"/>
	<path class="st1" d="M189.3,72.3c-4.3,0-7.9-1.3-10.5-3.9c-2.7-2.6-4-6-4-10.1v-0.7c0-2.9,0.5-5.5,1.6-7.7c1.1-2.2,2.6-3.9,4.7-5.1
		s4.5-1.8,7.3-1.8c4,0,7.1,1.2,9.4,3.7c2.3,2.5,3.5,5.9,3.5,10.3v3.4h-17.5c0.3,1.6,1,2.8,2.1,3.7s2.4,1.4,4.1,1.4
		c2.8,0,5-1,6.5-2.9l4,4.8c-1.1,1.5-2.7,2.7-4.7,3.6C193.8,71.8,191.6,72.3,189.3,72.3z M188.3,49.7c-2.6,0-4.1,1.7-4.6,5.1h8.9
		v-0.7c0-1.4-0.3-2.5-1.1-3.3C190.8,50.1,189.7,49.7,188.3,49.7z"/>
	<path class="st1" d="M205.2,71.7V33.6h12.3c3.4,0,6.4,0.8,9.1,2.3c2.7,1.5,4.8,3.7,6.3,6.5c1.5,2.8,2.3,5.9,2.3,9.4v1.8
		c0,3.5-0.7,6.6-2.2,9.4c-1.5,2.8-3.6,4.9-6.2,6.5c-2.7,1.6-5.7,2.4-9,2.4H205.2z M214.4,40.7v24h3.2c2.6,0,4.7-0.9,6.1-2.8
		c1.4-1.9,2.1-4.7,2.1-8.4v-1.6c0-3.7-0.7-6.5-2.1-8.3c-1.4-1.9-3.5-2.8-6.2-2.8H214.4z"/>
	<path class="st1" d="M239.8,71.7V33.6h13.7c4.9,0,8.6,0.9,11.2,2.7s3.8,4.4,3.8,7.8c0,2-0.5,3.7-1.4,5.1c-0.9,1.4-2.2,2.4-4,3.1
		c2,0.5,3.5,1.5,4.6,2.9c1.1,1.4,1.6,3.2,1.6,5.2c0,3.7-1.2,6.5-3.5,8.4c-2.4,1.9-5.9,2.8-10.5,2.9H239.8z M249,49.5h4.8
		c2,0,3.4-0.4,4.3-1.1c0.9-0.7,1.3-1.8,1.3-3.2c0-1.6-0.5-2.8-1.4-3.5c-0.9-0.7-2.4-1.1-4.5-1.1H249V49.5z M249,55.5v9.1h6
		c1.7,0,2.9-0.4,3.8-1.1c0.9-0.8,1.3-1.8,1.3-3.2c0-3.2-1.6-4.8-4.7-4.8H249z"/>
</g>
<g>
	
		<linearGradient id="SVGID_1_" gradientUnits="userSpaceOnUse" x1="789.1177" y1="-155.1046" x2="789.1177" y2="-210.5768" gradientTransform="matrix(0 1 1 0 207.587 -736.1435)">
		<stop  offset="0" style="stop-color:#0900FB"/>
		<stop  offset="1" style="stop-color:#00C3FF"/>
	</linearGradient>
	<path class="st2" d="M39.2,47.2L8.7,30.5c-4-2.2-8.7,0.9-8.7,5.8V53v16.7c0,4.8,4.7,7.9,8.7,5.8l30.6-16.7
		C43.6,56.3,43.6,49.6,39.2,47.2z"/>
	
		<linearGradient id="SVGID_00000106124151468527129070000003285878706170077868_" gradientUnits="userSpaceOnUse" x1="194.7513" y1="834.9235" x2="194.7513" y2="804.4963" gradientTransform="matrix(0 -1 -1 0 837.5696 214.4768)">
		<stop  offset="0" style="stop-color:#F7A000"/>
		<stop  offset="1" style="stop-color:#FFE115"/>
	</linearGradient>
	<path style="fill:url(#SVGID_00000106124151468527129070000003285878706170077868_);" d="M9.9,22.9l16.8,9.2
		c2.2,1.2,4.7-0.5,4.7-3.2v-9.2v-9.2c0-2.6-2.6-4.3-4.7-3.2L9.9,16.6C7.5,17.9,7.5,21.6,9.9,22.9z"/>
	
		<linearGradient id="SVGID_00000164480512601941235720000015372838179736604313_" gradientUnits="userSpaceOnUse" x1="209.4939" y1="825.4742" x2="209.4939" y2="810.488" gradientTransform="matrix(0 -1 -1 0 856.9797 245.0136)">
		<stop  offset="0" style="stop-color:#DC003E"/>
		<stop  offset="1" style="stop-color:#FF6D98"/>
	</linearGradient>
	<path style="fill:url(#SVGID_00000164480512601941235720000015372838179736604313_);" d="M35.1,37.1l8.3,4.5
		c1.1,0.6,2.3-0.3,2.3-1.6v-4.5V31c0-1.3-1.3-2.1-2.3-1.6L35.1,34C33.9,34.6,33.9,36.5,35.1,37.1z"/>
	
		<linearGradient id="SVGID_00000010292357106504756770000003427987810178493320_" gradientUnits="userSpaceOnUse" x1="44.7237" y1="20.6535" x2="8.1372" y2="48.4968" gradientTransform="matrix(1 0 0 -1 0 85.8898)">
		<stop  offset="0" style="stop-color:#0900FB"/>
		<stop  offset="1" style="stop-color:#00C3FF"/>
	</linearGradient>
	<path style="fill:url(#SVGID_00000010292357106504756770000003427987810178493320_);" d="M8.7,39.4l30.6,16.7
		c0.6,0.4,1.2,0.8,1.6,1.3c2.6-3,2.1-8.2-1.6-10.2L8.7,30.5c-4-2.2-8.7,0.9-8.7,5.8v8.9C0,40.3,4.7,37.2,8.7,39.4z"/>
	
		<linearGradient id="SVGID_00000008129530113572994510000005852005371834158472_" gradientUnits="userSpaceOnUse" x1="-6.8642" y1="55.1144" x2="27.7045" y2="73.1386" gradientTransform="matrix(1 0 0 -1 0 85.8898)">
		<stop  offset="0" style="stop-color:#F7A000"/>
		<stop  offset="1" style="stop-color:#FFE115"/>
	</linearGradient>
	<path style="fill:url(#SVGID_00000008129530113572994510000005852005371834158472_);" d="M26.7,7.4L9.9,16.6
		c-2.3,1.3-2.4,4.8-0.2,6.2c0.1,0,0.1-0.1,0.2-0.1l16.8-9.2c2.2-1.2,4.7,0.5,4.7,3.2v-6.1C31.4,7.9,28.9,6.2,26.7,7.4z"/>
	
		<linearGradient id="SVGID_00000083779512455401156070000014101958746562419594_" gradientUnits="userSpaceOnUse" x1="28.0706" y1="47.0359" x2="50.1301" y2="55.6445" gradientTransform="matrix(1 0 0 -1 0 85.8898)">
		<stop  offset="0" style="stop-color:#DC003E"/>
		<stop  offset="1" style="stop-color:#FF6D98"/>
	</linearGradient>
	<path style="fill:url(#SVGID_00000083779512455401156070000014101958746562419594_);" d="M43.3,29.5L35.1,34
		c-1.2,0.6-1.2,2.5,0,3.1l1.1,0.6l7.2-3.9c1.1-0.6,2.3,0.3,2.3,1.6V31C45.7,29.7,44.4,28.9,43.3,29.5z"/>
</g>
<g>
	
		<linearGradient id="SVGID_00000129904734467201561990000001349366347457239460_" gradientUnits="userSpaceOnUse" x1="791.1177" y1="143.8954" x2="791.1177" y2="88.4232" gradientTransform="matrix(0 1 1 0 207.587 -736.1435)">
		<stop  offset="0" style="stop-color:#0900FB"/>
		<stop  offset="1" style="stop-color:#00C3FF"/>
	</linearGradient>
	<path style="fill:url(#SVGID_00000129904734467201561990000001349366347457239460_);" d="M338.2,49.2l-30.6-16.7
		c-4-2.2-8.7,0.9-8.7,5.8V55v16.7c0,4.8,4.7,7.9,8.7,5.8l30.6-16.7C342.6,58.3,342.6,51.6,338.2,49.2z"/>
	
		<linearGradient id="SVGID_00000124874669742007736630000009901550514289795748_" gradientUnits="userSpaceOnUse" x1="192.7513" y1="535.9235" x2="192.7513" y2="505.4963" gradientTransform="matrix(0 -1 -1 0 837.5696 214.4768)">
		<stop  offset="0" style="stop-color:#F7A000"/>
		<stop  offset="1" style="stop-color:#FFE115"/>
	</linearGradient>
	<path style="fill:url(#SVGID_00000124874669742007736630000009901550514289795748_);" d="M308.9,24.9l16.8,9.2
		c2.2,1.2,4.7-0.5,4.7-3.2v-9.2v-9.2c0-2.6-2.6-4.3-4.7-3.2l-16.8,9.2C306.5,19.9,306.5,23.6,308.9,24.9z"/>
	
		<linearGradient id="SVGID_00000138559382795931868420000013482968583298554774_" gradientUnits="userSpaceOnUse" x1="207.4939" y1="526.4741" x2="207.4939" y2="511.4879" gradientTransform="matrix(0 -1 -1 0 856.9797 245.0136)">
		<stop  offset="0" style="stop-color:#DC003E"/>
		<stop  offset="1" style="stop-color:#FF6D98"/>
	</linearGradient>
	<path style="fill:url(#SVGID_00000138559382795931868420000013482968583298554774_);" d="M334.1,39.1l8.3,4.5
		c1.1,0.6,2.3-0.3,2.3-1.6v-4.5V33c0-1.3-1.3-2.1-2.3-1.6l-8.3,4.5C332.9,36.6,332.9,38.5,334.1,39.1z"/>
	
		<linearGradient id="SVGID_00000027598040411031320520000018025840605241273778_" gradientUnits="userSpaceOnUse" x1="343.7237" y1="18.6535" x2="307.1372" y2="46.4968" gradientTransform="matrix(1 0 0 -1 0 85.8898)">
		<stop  offset="0" style="stop-color:#0900FB"/>
		<stop  offset="1" style="stop-color:#00C3FF"/>
	</linearGradient>
	<path style="fill:url(#SVGID_00000027598040411031320520000018025840605241273778_);" d="M307.7,41.4l30.6,16.7
		c0.6,0.4,1.2,0.8,1.6,1.3c2.6-3,2.1-8.2-1.6-10.2l-30.6-16.7c-4-2.2-8.7,0.9-8.7,5.8v8.9C299,42.3,303.7,39.2,307.7,41.4z"/>
	
		<linearGradient id="SVGID_00000119819623754416679200000009630336625678326406_" gradientUnits="userSpaceOnUse" x1="292.1358" y1="53.1144" x2="326.7045" y2="71.1386" gradientTransform="matrix(1 0 0 -1 0 85.8898)">
		<stop  offset="0" style="stop-color:#F7A000"/>
		<stop  offset="1" style="stop-color:#FFE115"/>
	</linearGradient>
	<path style="fill:url(#SVGID_00000119819623754416679200000009630336625678326406_);" d="M325.7,9.4l-16.8,9.2
		c-2.3,1.3-2.4,4.8-0.2,6.2c0.1,0,0.1-0.1,0.2-0.1l16.8-9.2c2.2-1.2,4.7,0.5,4.7,3.2v-6.1C330.4,9.9,327.9,8.2,325.7,9.4z"/>
	
		<linearGradient id="SVGID_00000039827974127537806820000016537189977666440331_" gradientUnits="userSpaceOnUse" x1="327.0639" y1="45.0528" x2="349.1234" y2="53.6614" gradientTransform="matrix(1 0 0 -1 0 85.8898)">
		<stop  offset="0" style="stop-color:#DC003E"/>
		<stop  offset="1" style="stop-color:#FF6D98"/>
	</linearGradient>
	<path style="fill:url(#SVGID_00000039827974127537806820000016537189977666440331_);" d="M342.3,31.5L334,36
		c-1.2,0.6-1.2,2.5,0,3.1l1.1,0.6l7.2-3.9c1.1-0.6,2.3,0.3,2.3,1.6V33C344.7,31.7,343.4,30.9,342.3,31.5z"/>
</g>
</svg>
